<svg width="20" height="20" viewBox="0 0 20 20" fill="none" xmlns="http://www.w3.org/2000/svg">
<path fill-rule="evenodd" clip-rule="evenodd" d="M0.0559027 13.066C-0.134871 12.4227 0.175136 11.7555 0.795152 11.4934C1.39132 11.2551 1.77287 10.6355 1.77287 9.99219C1.77287 9.34883 1.39132 8.77695 0.795152 8.51484C0.175136 8.25273 -0.134871 7.56172 0.0559027 6.94219C0.246677 6.32266 0.508991 5.70312 0.818999 5.10742C1.12901 4.53555 1.82056 4.29727 2.44058 4.53555C3.03675 4.77383 3.7283 4.63086 4.18139 4.17812C4.63448 3.72539 4.77756 3.03437 4.53909 2.43867C4.27678 1.81914 4.53909 1.12812 5.11142 0.818359C5.70758 0.508593 6.30375 0.246484 6.94762 0.055859C7.59148 -0.134766 8.25919 0.175 8.5215 0.794531C8.75997 1.39023 9.35614 1.77148 10 1.77148C10.6439 1.77148 11.2162 1.39023 11.4785 0.794531C11.7408 0.175 12.4324 -0.134766 13.0524 0.055859C13.6724 0.246484 14.2924 0.508593 14.8886 0.818359C15.4609 1.12812 15.6994 1.81914 15.4609 2.43867C15.2224 3.03437 15.3655 3.72539 15.8186 4.17812C16.2717 4.63086 16.9633 4.77383 17.5594 4.53555C18.1794 4.27344 18.871 4.53555 19.181 5.10742C19.491 5.70312 19.7533 6.29883 19.9441 6.94219C20.1349 7.58555 19.8249 8.25273 19.2048 8.51484C18.6087 8.75313 18.2271 9.34883 18.2271 9.99219C18.2271 10.6355 18.6087 11.2074 19.2048 11.4695C19.8249 11.7316 20.1349 12.4227 19.9441 13.0422C19.7533 13.6617 19.491 14.2813 19.181 14.877C18.871 15.4488 18.1794 15.7109 17.5594 15.4488C16.9633 15.2105 16.2717 15.3535 15.8186 15.8063C15.3655 16.259 15.2224 16.95 15.4609 17.5457C15.7232 18.1652 15.4609 18.8563 14.8886 19.166C14.2924 19.4758 13.6962 19.7379 13.0524 19.9285C12.4085 20.1191 11.7408 19.8094 11.4785 19.1898C11.24 18.5941 10.6439 18.2129 10 18.2129C9.35614 18.2129 8.78382 18.5941 8.5215 19.1898C8.30688 19.6902 7.82995 20 7.32916 20C7.18608 20 7.06685 20 6.94762 19.9523C6.3276 19.7617 5.70758 19.4996 5.11142 19.1898C4.53909 18.8801 4.30063 18.1891 4.53909 17.5695C4.77756 16.9738 4.63448 16.2828 4.18139 15.8301C3.7283 15.3773 3.03675 15.2344 2.44058 15.4727C1.82056 15.7348 1.12901 15.4727 0.818999 14.9008C0.508991 14.3051 0.246677 13.7094 0.0559027 13.066ZM10 7C8.34315 7 7 8.34315 7 10C7 11.6569 8.34315 13 10 13C11.6569 13 13 11.6569 13 10C13 8.34315 11.6569 7 10 7Z" fill="#514E5E"/>
</svg>
