<svg width="135" height="25" viewBox="0 0 135 25" fill="none" xmlns="http://www.w3.org/2000/svg">
<path d="M93.5339 8.18567H98.5273L94.6799 12.9618L92.265 9.84515L93.5339 8.18567Z" fill="#5646C7"/>
<path d="M86.9855 6L81.9102 6.00011L88.7455 14.4997L81.9102 22.9995H86.9855L93.4729 14.4997L86.9855 6Z" fill="#6D58FF"/>
<path d="M100.268 22.9989H95.1922L92.2657 19.1545L94.6806 16.0783L100.268 22.9989Z" fill="#5646C7"/>
<path d="M11.6152 14.6048C11.6152 11.8611 12.296 9.7506 13.6574 8.27323C15.0189 6.79586 16.8909 6.03607 19.3586 6.03607C20.6775 6.03607 21.7837 6.24712 22.7623 6.66923C23.7408 7.09134 24.5067 7.64007 25.1448 8.39986C25.783 9.15965 26.251 10.0461 26.5489 11.1013C26.8467 12.1566 27.0169 13.3385 27.0169 14.6048C27.0169 17.3485 26.3361 19.459 25.0172 20.9364C23.6557 22.4138 21.7837 23.1735 19.3586 23.1735C18.0397 23.1735 16.9335 22.9625 15.9549 22.5404C14.9764 22.1183 14.2105 21.5695 13.5723 20.8098C12.9342 20.05 12.4662 19.1635 12.1258 18.1083C11.7854 17.053 11.6152 15.8711 11.6152 14.6048ZM15.9975 14.6048C15.9975 15.3224 16.0826 15.9978 16.2102 16.5887C16.3378 17.1797 16.5506 17.7284 16.8058 18.1927C17.0611 18.657 17.4015 18.9947 17.8269 19.248C18.2524 19.5012 18.763 19.6279 19.3586 19.6279C20.4648 19.6279 21.3157 19.248 21.8263 18.446C22.3794 17.644 22.6346 16.3777 22.6346 14.647C22.6346 13.1697 22.3794 11.9455 21.8688 11.0169C21.3583 10.0883 20.5073 9.62397 19.3161 9.62397C18.2524 9.62397 17.444 10.0039 16.8484 10.8059C16.2953 11.5657 15.9975 12.832 15.9975 14.6048Z" fill="white"/>
<path d="M33.3562 15.9978V22.7093H29.1016V0H33.3562V13.3807L38.0788 6.45821H42.7588L37.1428 13.8873L43.3545 22.7093H38.4617L33.3562 15.9978Z" fill="white"/>
<path d="M56.7567 21.3163C56.1185 21.8228 55.225 22.2871 54.0763 22.6248C52.9701 22.9625 51.7788 23.1735 50.5024 23.1735C47.8646 23.1735 45.95 22.4138 44.7162 20.8942C43.4824 19.3746 42.8867 17.2641 42.8867 14.6048C42.8867 11.7345 43.5675 9.62397 44.9289 8.18881C46.2904 6.75365 48.2475 6.03607 50.7152 6.03607C51.5235 6.03607 52.3319 6.1627 53.1403 6.37376C53.9061 6.58481 54.6294 6.9647 55.225 7.42902C55.8207 7.93555 56.3312 8.61091 56.7142 9.45512C57.0971 10.2993 57.2673 11.3546 57.2673 12.6209C57.2673 13.0852 57.2247 13.5495 57.1822 14.0983C57.1396 14.6048 57.0545 15.1535 56.9269 15.7023H47.1413C47.2264 17.053 47.5668 18.1083 48.205 18.7837C48.8432 19.459 49.8643 19.8389 51.3108 19.8389C52.2043 19.8389 53.0127 19.7123 53.6934 19.4168C54.4167 19.1635 54.9272 18.8681 55.3101 18.5726L56.7567 21.3163ZM50.7152 9.41291C49.609 9.41291 48.8006 9.7506 48.2475 10.3838C47.737 11.0591 47.3966 11.9033 47.2689 13.043H53.3105C53.3956 11.8611 53.2254 10.9747 52.7574 10.3415C52.3745 9.70839 51.6512 9.41291 50.7152 9.41291Z" fill="white"/>
<path d="M69.6057 13.5073C69.6057 12.1988 69.4355 11.228 69.0526 10.637C68.6697 10.0461 68.0315 9.7506 67.0955 9.7506C66.2871 9.7506 65.6064 10.0039 65.0533 10.4682C64.5002 10.9325 64.1173 11.5234 63.862 12.1988V22.7092H59.6074V6.50038H63.4791V8.65312H63.6067C64.1173 7.97775 64.7555 7.34459 65.6064 6.83807C66.4573 6.33154 67.521 6.07828 68.7973 6.07828C69.6057 6.07828 70.329 6.20491 70.9672 6.41596C71.6054 6.62701 72.1159 7.00691 72.5839 7.47123C73.0094 7.97775 73.3497 8.65312 73.5625 9.49733C73.7752 10.3415 73.9028 11.3968 73.9028 12.6631V22.7514H69.6057V13.5073Z" fill="white"/>
<path d="M9.27502 19.131C8.93465 19.2154 8.59428 19.2576 8.12628 19.2576C7.48809 19.2576 7.06263 19.0043 6.8499 18.54C6.63717 18.0335 6.50953 17.2315 6.50953 16.134V9.88684H10.5088V6.29895H6.50953V2.5L2.25494 3.25979V6.29895H0V9.88684H2.25494V18.0757C2.25494 19.8063 2.5953 21.0726 3.31858 21.8746C4.04186 22.6344 5.14806 23.0143 6.63717 23.0143C7.44554 23.0143 8.25391 22.9299 9.01974 22.7188C9.27502 22.6344 9.53029 22.5922 9.74302 22.5078V19.0043C9.57284 19.0465 9.40265 19.0887 9.27502 19.131Z" fill="white"/>
</svg>
